<?xml version="1.0" encoding="utf-8"?>
<!-- Generator: Adobe Illustrator 27.3.1, SVG Export Plug-In . SVG Version: 6.00 Build 0)  -->
<svg version="1.1" id="App_Logo" xmlns="http://www.w3.org/2000/svg" xmlns:xlink="http://www.w3.org/1999/xlink" x="0px" y="0px"
	 viewBox="0 0 1202 1202" style="enable-background:new 0 0 1202 1202;" xml:space="preserve">
<style type="text/css">
	
		.app_st0{clip-path:url(#SVGID_00000094598118097622137820000007522125776872133255_);fill:url(#SVGID_00000142136608667624052750000012702230984576497319_);}
	.app_st1{filter:url(#Adobe_OpacityMaskFilter);}
	.app_st2{fill:url(#SVGID_00000135668099503327378020000013795457622965323198_);}
	.app_st3{mask:url(#SVGID_00000161631999125282143660000015085733535688365234_);fill-rule:evenodd;clip-rule:evenodd;fill:#1E003D;}
	.app_st4{filter:url(#Adobe_OpacityMaskFilter_00000137848107794580397610000017404389278869736887_);}
	.app_st5{fill:url(#SVGID_00000056388957719746745310000013485302722563967421_);}
	.app_st6{mask:url(#SVGID_00000166633646365442968190000009315602639593059970_);fill-rule:evenodd;clip-rule:evenodd;fill:#1E003D;}
	
		.app_st7{clip-path:url(#SVGID_00000166641881204262915660000008126572134199169169_);fill:url(#SVGID_00000034081974487248052510000013916328404200916118_);}
	.app_st8{filter:url(#Adobe_OpacityMaskFilter_00000163070764415065064990000007381561899326360464_);}
	.app_st9{fill:url(#SVGID_00000153691254866439878760000006916806935550559642_);}
	.app_st10{mask:url(#SVGID_00000160178573590924982740000012711203423838701724_);fill-rule:evenodd;clip-rule:evenodd;fill:#F12BF2;}
	.app_st11{filter:url(#Adobe_OpacityMaskFilter_00000061448790278488265290000016157900379166329992_);}
	.app_st12{fill:url(#SVGID_00000065783320397647391490000011138367240046071708_);}
	.app_st13{mask:url(#SVGID_00000165944226915059174780000016489005428826470811_);fill-rule:evenodd;clip-rule:evenodd;fill:#F6DCFD;}
	
		.app_st14{clip-path:url(#SVGID_00000164513058400482987940000016183510206661671349_);fill:url(#SVGID_00000162320821165610545610000007754215491212087959_);}
	.app_st15{filter:url(#Adobe_OpacityMaskFilter_00000124136433111247627410000009546356343658823083_);}
	.app_st16{fill:url(#SVGID_00000164505382106258942480000001004828145396177806_);}
	.app_st17{mask:url(#SVGID_00000025405986484366576590000018424688721307486094_);fill-rule:evenodd;clip-rule:evenodd;fill:#1E003D;}
	.app_st18{filter:url(#Adobe_OpacityMaskFilter_00000163059968480272759940000011999711559532369026_);}
	.app_st19{fill:url(#SVGID_00000009568732422046666880000013487746551842045587_);}
	.app_st20{mask:url(#SVGID_00000045620882388102168770000001007508940291583661_);fill-rule:evenodd;clip-rule:evenodd;fill:#1E003D;}
	
		.app_st21{clip-path:url(#SVGID_00000153683647737877934990000014950888755094108607_);fill:url(#SVGID_00000111182936628175030580000005302885986358708135_);}
	.app_st22{filter:url(#Adobe_OpacityMaskFilter_00000135678490746747569660000007231563728411193007_);}
	.app_st23{fill:url(#SVGID_00000142893144296315752280000011064768472396048314_);}
	.app_st24{mask:url(#SVGID_00000142893537814416370020000010461659711406960794_);fill-rule:evenodd;clip-rule:evenodd;fill:#F12BF2;}
	.app_st25{filter:url(#Adobe_OpacityMaskFilter_00000039851408789171609770000015718882328610056096_);}
	.app_st26{fill:url(#SVGID_00000021088063006701660570000009154969760392850102_);}
	.app_st27{mask:url(#SVGID_00000165213241708631413430000001683692935544827788_);fill-rule:evenodd;clip-rule:evenodd;fill:#F6DCFD;}
	
		.app_st28{clip-path:url(#SVGID_00000149345448824203398390000009376709965242219451_);fill:url(#SVGID_00000151535107135109251600000005428857590387732899_);}
	.app_st29{filter:url(#Adobe_OpacityMaskFilter_00000126310600441502854680000010668938433123887251_);}
	.app_st30{fill:url(#SVGID_00000031180257437385782020000015750815866830349699_);}
	.app_st31{mask:url(#SVGID_00000159433013500731747640000007580453291799768754_);fill-rule:evenodd;clip-rule:evenodd;fill:#1E003D;}
	.app_st32{filter:url(#Adobe_OpacityMaskFilter_00000011740881813660277890000008509487205436604547_);}
	.app_st33{fill:url(#SVGID_00000079487454561842928460000016351872968318423691_);}
	.app_st34{mask:url(#SVGID_00000025416788133254633280000009105341800888297891_);fill-rule:evenodd;clip-rule:evenodd;fill:#1E003D;}
	
		.app_st35{clip-path:url(#SVGID_00000157310082448162688740000000856182090324053394_);fill:url(#SVGID_00000088115683784575881370000009510289877477519757_);}
	.app_st36{filter:url(#Adobe_OpacityMaskFilter_00000045576806669488396300000008873742529971678848_);}
	.app_st37{fill:url(#SVGID_00000129178936742327846280000006645389575547260604_);}
	.app_st38{mask:url(#SVGID_00000054958717936005188620000003232238776898606510_);fill-rule:evenodd;clip-rule:evenodd;fill:#F12BF2;}
	.app_st39{filter:url(#Adobe_OpacityMaskFilter_00000124883269283602337400000005644764973454317452_);}
	.app_st40{fill:url(#SVGID_00000104671418862118320720000005309315919257039492_);}
	.app_st41{mask:url(#SVGID_00000182527989198529146050000017751084620580754059_);fill-rule:evenodd;clip-rule:evenodd;fill:#F6DCFD;}
</style>
<g>
	<g>
		<defs>
			<path id="SVGID_1_" d="M412.13,498.95c26.13-41.6,39.12-66.63,51.17-81.58L328.53,202.85
				c-85.76,239.74,33.41,420.94,33.41,420.94c-8.66-17.22-8.66-28.37,0-45.59C370.41,561.37,387.13,538.74,412.13,498.95"/>
		</defs>
		<clipPath id="SVGID_00000135661117584735054260000008734535266255156648_">
			<use xlink:href="#SVGID_1_"  style="overflow:visible;"/>
		</clipPath>
		
			<linearGradient id="SVGID_00000042700877141371716880000014761121127197765805_" gradientUnits="userSpaceOnUse" x1="260.8855" y1="550.9713" x2="596.2193" y2="50.0707">
			<stop  offset="0" style="stop-color:#470385"/>
			<stop  offset="1" style="stop-color:#444CB6"/>
		</linearGradient>
		
			<rect x="242.77" y="202.85" style="clip-path:url(#SVGID_00000135661117584735054260000008734535266255156648_);fill:url(#SVGID_00000042700877141371716880000014761121127197765805_);" width="220.53" height="420.94"/>
	</g>
	<defs>
		<filter id="Adobe_OpacityMaskFilter" filterUnits="userSpaceOnUse" x="305.3" y="330.82" width="158" height="292.98">
			<feColorMatrix  type="matrix" values="1 0 0 0 0  0 1 0 0 0  0 0 1 0 0  0 0 0 1 0"/>
		</filter>
	</defs>
	
		<mask maskUnits="userSpaceOnUse" x="305.3" y="330.82" width="158" height="292.98" id="SVGID_00000080182221954350036760000002685695357066242993_">
		<g class="st1">
			
				<linearGradient id="SVGID_00000063617060472062440570000007713151746713080465_" gradientUnits="userSpaceOnUse" x1="-540.3707" y1="1604.2568" x2="107.0519" y2="1002.7632" gradientTransform="matrix(1 0 0 1 440.7693 -677.3791)">
				<stop  offset="0" style="stop-color:#FFFFFF"/>
				<stop  offset="1" style="stop-color:#000000"/>
			</linearGradient>
			
				<rect x="305.3" y="330.82" style="fill:url(#SVGID_00000063617060472062440570000007713151746713080465_);" width="158" height="292.98"/>
		</g>
	</mask>
	
		<path style="mask:url(#SVGID_00000080182221954350036760000002685695357066242993_);fill-rule:evenodd;clip-rule:evenodd;fill:#1E003D;" d="
		M412.13,498.95c26.13-41.6,39.12-66.63,51.17-81.58l-54.38-86.56L305.3,467c17.15,96.72,56.65,156.8,56.65,156.8
		c-8.66-17.22-8.66-28.37,0-45.59C370.41,561.37,387.13,538.74,412.13,498.95"/>
	<defs>
		
			<filter id="Adobe_OpacityMaskFilter_00000008852607453348275940000001299733321382197433_" filterUnits="userSpaceOnUse" x="297.49" y="202.85" width="82.46" height="420.94">
			<feColorMatrix  type="matrix" values="1 0 0 0 0  0 1 0 0 0  0 0 1 0 0  0 0 0 1 0"/>
		</filter>
	</defs>
	
		<mask maskUnits="userSpaceOnUse" x="297.49" y="202.85" width="82.46" height="420.94" id="SVGID_00000175290809863154797560000010914072213286581424_">
		<g style="filter:url(#Adobe_OpacityMaskFilter_00000008852607453348275940000001299733321382197433_);">
			
				<linearGradient id="SVGID_00000104690627032693650430000012151946008406067841_" gradientUnits="userSpaceOnUse" x1="-511.5421" y1="386.7508" x2="111.7169" y2="1447.288" gradientTransform="matrix(1 0 0 1 436.5686 -677.3791)">
				<stop  offset="0" style="stop-color:#FFFFFF"/>
				<stop  offset="1" style="stop-color:#000000"/>
			</linearGradient>
			
				<rect x="297.49" y="202.85" style="fill:url(#SVGID_00000104690627032693650430000012151946008406067841_);" width="82.46" height="420.94"/>
		</g>
	</mask>
	
		<path style="mask:url(#SVGID_00000175290809863154797560000010914072213286581424_);fill-rule:evenodd;clip-rule:evenodd;fill:#1E003D;" d="
		M328.53,202.85c-85.76,239.74,33.41,420.94,33.41,420.94c-8.66-17.22-8.66-28.37,0-45.59c4.08-8.12,10.09-17.59,18.01-29.68
		C278.68,395.12,328.53,202.85,328.53,202.85"/>
	<g>
		<defs>
			<path id="SVGID_00000176748860669573341350000001191023166301194941_" d="M328.53,202.85c-30.98,27.34-56.47,81.41-122.61,186.69
				C141.08,492.75,103.09,540.26,91.94,578.2c-4.63,15.75-4.63,29.85,0,45.59c11.14,37.94,49.14,85.45,113.98,188.67
				c66.14,105.28,91.63,159.35,122.61,186.69L463.3,784.63c-12.05-14.95-25.04-39.98-51.17-81.58
				c-24.99-39.79-41.72-62.42-50.18-79.25C361.94,623.8,242.77,442.59,328.53,202.85"/>
		</defs>
		<clipPath id="SVGID_00000117655374396570917100000003254440799592314547_">
			<use xlink:href="#SVGID_00000176748860669573341350000001191023166301194941_"  style="overflow:visible;"/>
		</clipPath>
		
			<linearGradient id="SVGID_00000028287712931343029790000010808491749664497339_" gradientUnits="userSpaceOnUse" x1="431.6923" y1="871.8568" x2="123.1622" y2="337.4863">
			<stop  offset="0" style="stop-color:#5B0298"/>
			<stop  offset="1" style="stop-color:#9200F7"/>
		</linearGradient>
		
			<rect x="87.32" y="202.85" style="clip-path:url(#SVGID_00000117655374396570917100000003254440799592314547_);fill:url(#SVGID_00000028287712931343029790000010808491749664497339_);" width="375.98" height="796.3"/>
	</g>
	<defs>
		
			<filter id="Adobe_OpacityMaskFilter_00000026858406611153696940000018353157670444565138_" filterUnits="userSpaceOnUse" x="88.47" y="202.85" width="310.45" height="796.3">
			<feColorMatrix  type="matrix" values="1 0 0 0 0  0 1 0 0 0  0 0 1 0 0  0 0 0 1 0"/>
		</filter>
	</defs>
	
		<mask maskUnits="userSpaceOnUse" x="88.47" y="202.85" width="310.45" height="796.3" id="SVGID_00000094611609852669697600000013798477986630912171_">
		<g style="filter:url(#Adobe_OpacityMaskFilter_00000026858406611153696940000018353157670444565138_);">
			
				<linearGradient id="SVGID_00000171689929528070650550000015511899218665034657_" gradientUnits="userSpaceOnUse" x1="-371.2167" y1="1085.2212" x2="-17.7636" y2="1052.694" gradientTransform="matrix(1 0 0 1 324.0142 -457.4506)">
				<stop  offset="0" style="stop-color:#FFFFFF"/>
				<stop  offset="1" style="stop-color:#000000"/>
			</linearGradient>
			
				<rect x="88.47" y="202.85" style="fill:url(#SVGID_00000171689929528070650550000015511899218665034657_);" width="310.45" height="796.3"/>
		</g>
	</mask>
	
		<path style="mask:url(#SVGID_00000094611609852669697600000013798477986630912171_);fill-rule:evenodd;clip-rule:evenodd;fill:#F12BF2;" d="
		M313.21,754.61c-110.72-176.24-113.68-128.92-8.88-293.2c-11.68-70.42-11.24-159.49,24.2-258.56
		c-30.98,27.34-56.47,81.41-122.61,186.69C141.08,492.75,103.09,540.26,91.94,578.2c-4.63,15.75-4.63,29.85,0,45.59
		c11.14,37.94,49.14,85.45,113.98,188.67c66.14,105.28,91.63,159.35,122.61,186.69l70.39-112.05
		C377.84,866.34,358.85,827.26,313.21,754.61"/>
	<defs>
		
			<filter id="Adobe_OpacityMaskFilter_00000164507897873269856020000017566040610841485994_" filterUnits="userSpaceOnUse" x="88.47" y="202.85" width="374.83" height="796.3">
			<feColorMatrix  type="matrix" values="1 0 0 0 0  0 1 0 0 0  0 0 1 0 0  0 0 0 1 0"/>
		</filter>
	</defs>
	
		<mask maskUnits="userSpaceOnUse" x="88.47" y="202.85" width="374.83" height="796.3" id="SVGID_00000017483776349160107500000018101058837693427589_">
		<g style="filter:url(#Adobe_OpacityMaskFilter_00000164507897873269856020000017566040610841485994_);">
			
				<linearGradient id="SVGID_00000114769869822356610760000005606354411024676784_" gradientUnits="userSpaceOnUse" x1="-125.9249" y1="683.679" x2="-4.248" y2="1269.8381" gradientTransform="matrix(1 0 0 1 324.0142 -457.4506)">
				<stop  offset="0" style="stop-color:#000000"/>
				<stop  offset="0.36" style="stop-color:#919191"/>
				<stop  offset="1" style="stop-color:#000000"/>
			</linearGradient>
			
				<rect x="88.47" y="202.85" style="fill:url(#SVGID_00000114769869822356610760000005606354411024676784_);" width="374.83" height="796.3"/>
		</g>
	</mask>
	
		<path style="mask:url(#SVGID_00000017483776349160107500000018101058837693427589_);fill-rule:evenodd;clip-rule:evenodd;fill:#F6DCFD;" d="
		M322.16,212.79c-5.16,5.51-9.86,11.43-14.25,17.39c-9.02,12.24-17.17,25.18-25.08,38.04c-10.77,17.5-21.21,35.2-31.77,52.81
		c-14.02,23.38-28.21,46.66-42.73,69.78c-14.28,22.73-28.86,45.27-43.62,67.73c-11.19,17.02-22.5,33.99-33.52,51.1
		c-8.15,12.66-16.26,25.53-23.36,38.72c-5.25,9.75-10.11,19.98-13.2,30.5c-4.48,15.26-4.48,28.99,0,44.26
		c3.09,10.52,7.95,20.75,13.2,30.5c7.1,13.19,15.21,26.05,23.36,38.72c11.01,17.12,22.33,34.08,33.52,51.1
		c14.76,22.46,29.35,45.01,43.62,67.73c14.52,23.12,28.71,46.4,42.73,69.78c10.56,17.61,21,35.3,31.77,52.81
		c7.91,12.86,16.06,25.81,25.08,38.04c5.98,8.11,12.52,16.14,20.01,23.18l132.05-210.2c-3.03-3.88-5.81-7.96-8.48-12.05
		c-3.78-5.81-7.38-11.74-10.95-17.67c-10.21-16.97-20.29-33.94-30.84-50.74c-10.19-16.21-20.74-32.17-31.26-48.19
		c-3.74-5.69-7.47-11.4-11.03-17.19c-2.81-4.56-5.54-9.19-7.94-13.95c-1.85-2.82-3.57-5.78-5.24-8.69c-4.51-7.9-8.67-16-12.55-24.17
		c-13.54-28.52-24.05-58.59-31.7-88.89c-11.05-43.78-16.21-88.8-15.35-133.74C295.66,316.23,305.13,263.65,322.16,212.79
		 M328.53,202.85c-30.98,27.34-56.47,81.41-122.61,186.69C141.08,492.75,103.09,540.26,91.94,578.2c-4.63,15.75-4.63,29.85,0,45.59
		c11.14,37.94,49.14,85.45,113.98,188.67c66.14,105.28,91.63,159.35,122.61,186.69L463.3,784.63
		c-12.05-14.95-25.04-39.98-51.17-81.58c-24.99-39.79-41.72-62.42-50.18-79.25C361.94,623.8,242.77,442.59,328.53,202.85z"/>
	<g>
		<defs>
			<path id="SVGID_00000178888792558665823170000002737190402690039173_" d="M792.7,501.11c26.13,41.6,43.23,64.45,51.29,81.52
				l269.54,0C930.49,394.5,700.15,398.75,700.15,398.75c20.56,1.72,31.06,7.29,42.96,22.8C754.74,436.7,767.71,461.33,792.7,501.11"
				/>
		</defs>
		<clipPath id="SVGID_00000130622833969781947260000006292295668341844914_">
			<use xlink:href="#SVGID_00000178888792558665823170000002737190402690039173_"  style="overflow:visible;"/>
		</clipPath>
		
			<linearGradient id="SVGID_00000106131181978673780230000009796539667459815074_" gradientUnits="userSpaceOnUse" x1="834.81" y1="342.1873" x2="1106.7977" y2="894.9272">
			<stop  offset="0" style="stop-color:#470385"/>
			<stop  offset="1" style="stop-color:#444CB6"/>
		</linearGradient>
		
			<rect x="700.15" y="394.5" style="clip-path:url(#SVGID_00000130622833969781947260000006292295668341844914_);fill:url(#SVGID_00000106131181978673780230000009796539667459815074_);" width="413.38" height="188.12"/>
	</g>
	<defs>
		
			<filter id="Adobe_OpacityMaskFilter_00000064315979544908500730000013381776694487456137_" filterUnits="userSpaceOnUse" x="700.15" y="398.74" width="252.59" height="183.89">
			<feColorMatrix  type="matrix" values="1 0 0 0 0  0 1 0 0 0  0 0 1 0 0  0 0 0 1 0"/>
		</filter>
	</defs>
	
		<mask maskUnits="userSpaceOnUse" x="700.15" y="398.74" width="252.59" height="183.89" id="SVGID_00000146494343932099590110000016332580536167976088_">
		<g style="filter:url(#Adobe_OpacityMaskFilter_00000064315979544908500730000013381776694487456137_);">
			
				<linearGradient id="SVGID_00000094598257587893322540000009702863168393120671_" gradientUnits="userSpaceOnUse" x1="27.0608" y1="554.3877" x2="222.1604" y2="1406.7021" gradientTransform="matrix(1 0 0 1 653.3912 -701.4997)">
				<stop  offset="0" style="stop-color:#FFFFFF"/>
				<stop  offset="1" style="stop-color:#000000"/>
			</linearGradient>
			
				<rect x="700.15" y="398.74" style="fill:url(#SVGID_00000094598257587893322540000009702863168393120671_);" width="252.59" height="183.89"/>
		</g>
	</mask>
	
		<path style="mask:url(#SVGID_00000146494343932099590110000016332580536167976088_);fill-rule:evenodd;clip-rule:evenodd;fill:#1E003D;" d="
		M792.7,501.11c26.13,41.6,43.23,64.45,51.29,81.52h108.75l-76.52-150.57c-99.72-34.71-176.08-33.31-176.08-33.31
		c20.56,1.72,31.06,7.29,42.96,22.8C754.74,436.7,767.71,461.33,792.7,501.11"/>
	<defs>
		
			<filter id="Adobe_OpacityMaskFilter_00000182525274351653844080000016399602817219326390_" filterUnits="userSpaceOnUse" x="700.15" y="398.74" width="413.38" height="183.89">
			<feColorMatrix  type="matrix" values="1 0 0 0 0  0 1 0 0 0  0 0 1 0 0  0 0 0 1 0"/>
		</filter>
	</defs>
	
		<mask maskUnits="userSpaceOnUse" x="700.15" y="398.74" width="413.38" height="183.89" id="SVGID_00000150786827087447458400000012590835670068342197_">
		<g style="filter:url(#Adobe_OpacityMaskFilter_00000182525274351653844080000016399602817219326390_);">
			
				<linearGradient id="SVGID_00000062189740216399343360000006760491977992539577_" gradientUnits="userSpaceOnUse" x1="1137.4758" y1="1185.3706" x2="-189.3969" y2="1195.5997" gradientTransform="matrix(1 0 0 1 653.3912 -701.5)">
				<stop  offset="0" style="stop-color:#FFFFFF"/>
				<stop  offset="1" style="stop-color:#000000"/>
			</linearGradient>
			
				<rect x="700.15" y="398.74" style="fill:url(#SVGID_00000062189740216399343360000006760491977992539577_);" width="413.38" height="183.89"/>
		</g>
	</mask>
	
		<path style="mask:url(#SVGID_00000150786827087447458400000012590835670068342197_);fill-rule:evenodd;clip-rule:evenodd;fill:#1E003D;" d="
		M1113.53,582.63C930.49,394.5,700.15,398.75,700.15,398.75c20.56,1.72,31.06,7.29,42.96,22.8c5.61,7.31,11.53,16.82,18.96,29.18
		C957.27,446.82,1113.53,582.63,1113.53,582.63"/>
	<g>
		<defs>
			<path id="SVGID_00000111912546422247623530000000751928924210929338_" d="M1113.53,582.63
				c-10.27-38.33-48.48-85.65-114.61-190.93c-64.84-103.21-90.62-157.21-120.8-185.05c-12.53-11.56-25.81-18.6-42.96-22.8
				c-41.32-10.1-105.09-3.62-234.78-3.62c-132.27,0-195.97-6.74-237.23,4.24L497.92,399c20.11-2.12,50.19,0.06,102.46,0.06
				c49.99,0,79.68-2,99.77-0.31C700.15,398.75,930.49,394.5,1113.53,582.63"/>
		</defs>
		<clipPath id="SVGID_00000020372408588154202060000007547006933731828137_">
			<use xlink:href="#SVGID_00000111912546422247623530000000751928924210929338_"  style="overflow:visible;"/>
		</clipPath>
		
			<linearGradient id="SVGID_00000135669882760974482850000007308359183407030658_" gradientUnits="userSpaceOnUse" x1="430.5384" y1="378.0615" x2="1090.3025" y2="378.0615">
			<stop  offset="0" style="stop-color:#5B0298"/>
			<stop  offset="1" style="stop-color:#9200F7"/>
		</linearGradient>
		
			<rect x="363.15" y="173.49" style="clip-path:url(#SVGID_00000020372408588154202060000007547006933731828137_);fill:url(#SVGID_00000135669882760974482850000007308359183407030658_);" width="750.37" height="409.14"/>
	</g>
	<defs>
		
			<filter id="Adobe_OpacityMaskFilter_00000074434090495003501430000011524972099374472119_" filterUnits="userSpaceOnUse" x="363.15" y="178.19" width="750.37" height="404.44">
			<feColorMatrix  type="matrix" values="1 0 0 0 0  0 1 0 0 0  0 0 1 0 0  0 0 0 1 0"/>
		</filter>
	</defs>
	
		<mask maskUnits="userSpaceOnUse" x="363.15" y="178.19" width="750.37" height="404.44" id="SVGID_00000051372748471138209290000013487752532709949885_">
		<g style="filter:url(#Adobe_OpacityMaskFilter_00000074434090495003501430000011524972099374472119_);">
			
				<linearGradient id="SVGID_00000064327608932816436670000005354315853558277266_" gradientUnits="userSpaceOnUse" x1="417.6094" y1="753.8155" x2="273.4039" y2="1066.7449" gradientTransform="matrix(1 0 0 1 471.924 -701.5)">
				<stop  offset="0" style="stop-color:#FFFFFF"/>
				<stop  offset="1" style="stop-color:#000000"/>
			</linearGradient>
			
				<rect x="363.15" y="178.19" style="fill:url(#SVGID_00000064327608932816436670000005354315853558277266_);" width="750.37" height="404.44"/>
		</g>
	</mask>
	
		<path style="mask:url(#SVGID_00000051372748471138209290000013487752532709949885_);fill-rule:evenodd;clip-rule:evenodd;fill:#F12BF2;" d="
		M601.25,294.55c221.43,0,178.32-26.02,280.73,139.53c72.2,25.91,155.91,70.8,231.55,148.54c-10.27-38.33-48.48-85.65-114.61-190.93
		c-64.84-103.22-90.62-157.21-120.8-185.05c-12.53-11.56-25.81-18.6-42.96-22.8c-41.32-10.1-105.09-3.62-234.78-3.62
		c-132.27,0-195.97-6.74-237.22,4.24l70.39,112.05C463.64,290.13,509.97,294.55,601.25,294.55"/>
	<defs>
		
			<filter id="Adobe_OpacityMaskFilter_00000182487601542526219620000003581836822414672258_" filterUnits="userSpaceOnUse" x="363.15" y="178.19" width="750.37" height="404.44">
			<feColorMatrix  type="matrix" values="1 0 0 0 0  0 1 0 0 0  0 0 1 0 0  0 0 0 1 0"/>
		</filter>
	</defs>
	
		<mask maskUnits="userSpaceOnUse" x="363.15" y="178.19" width="750.37" height="404.44" id="SVGID_00000170246115689202037390000010740264626787875224_">
		<g style="filter:url(#Adobe_OpacityMaskFilter_00000182487601542526219620000003581836822414672258_);">
			
				<linearGradient id="SVGID_00000048476117359989068220000014670847419346988967_" gradientUnits="userSpaceOnUse" x1="664.9261" y1="1213.4962" x2="58.8949" y2="1013.386" gradientTransform="matrix(1 0 0 1 471.924 -701.5)">
				<stop  offset="0" style="stop-color:#000000"/>
				<stop  offset="0.36" style="stop-color:#919191"/>
				<stop  offset="1" style="stop-color:#000000"/>
			</linearGradient>
			
				<rect x="363.15" y="178.19" style="fill:url(#SVGID_00000048476117359989068220000014670847419346988967_);" width="750.37" height="404.44"/>
		</g>
	</mask>
	
		<path style="mask:url(#SVGID_00000170246115689202037390000010740264626787875224_);fill-rule:evenodd;clip-rule:evenodd;fill:#F6DCFD;" d="
		M1107.34,572.59c-2.62-6.86-5.84-13.56-9.27-20.04c-7.02-13.29-15.15-26.25-23.31-38.98c-11.11-17.32-22.56-34.48-33.88-51.69
		c-15.02-22.85-29.87-45.78-44.39-68.9c-14.28-22.73-28.23-45.61-42.01-68.59c-10.45-17.41-20.78-34.9-31.4-52.23
		c-7.86-12.82-15.93-25.7-24.8-37.95c-6.56-9.05-13.77-18.04-22.14-25.76c-12.14-11.2-25.08-18.07-41.71-22.13
		c-11.46-2.8-23.53-4.05-35.34-4.74c-15.98-0.94-32.16-0.92-48.17-0.77c-21.64,0.21-43.28,0.73-64.91,1.12
		c-28.55,0.52-57.08,0.86-85.64,0.86c-29.05,0-58.08-0.35-87.12-0.88c-21.88-0.4-43.77-0.93-65.65-1.12
		c-16.07-0.13-32.35-0.12-48.39,0.94c-10.63,0.7-21.47,1.89-31.85,4.34l132.05,210.2c5.17-0.47,10.4-0.65,15.59-0.72
		c7.37-0.11,14.75,0,22.12,0.12c21.09,0.36,42.13,0.83,63.23,0.83c20.37,0,40.68-0.42,61.05-0.79c7.23-0.13,14.48-0.24,21.72-0.19
		c5.7,0.04,11.43,0.19,17.11,0.66c3.58-0.06,7.24,0.05,10.81,0.18c9.7,0.36,19.41,1.1,29.05,2.1c33.64,3.48,67.24,10.15,99.61,19.21
		c46.78,13.09,91.78,31.5,133.7,54.65C1023.12,499.78,1067.94,533.6,1107.34,572.59 M1113.53,582.63
		c-10.27-38.33-48.48-85.65-114.61-190.93c-64.84-103.21-90.62-157.21-120.8-185.05c-12.53-11.56-25.81-18.6-42.96-22.8
		c-41.32-10.1-105.09-3.62-234.78-3.62c-132.27,0-195.97-6.74-237.23,4.24L497.92,399c20.11-2.12,50.19,0.06,102.46,0.06
		c49.99,0,79.68-2,99.77-0.31C700.15,398.75,930.49,394.5,1113.53,582.63z"/>
	<g>
		<defs>
			<path id="SVGID_00000057146185392235615120000010328750100951468184_" d="M600.38,802.93c-52.26,0-82.34,2.18-102.46,0.06
				l-134.77,214.52c268.79-51.61,379.96-237.07,379.96-237.07c-11.9,15.5-22.4,21.08-42.96,22.8
				C680.06,804.93,650.37,802.93,600.38,802.93"/>
		</defs>
		<clipPath id="SVGID_00000034776294099249804180000017108132910619090310_">
			<use xlink:href="#SVGID_00000057146185392235615120000010328750100951468184_"  style="overflow:visible;"/>
		</clipPath>
		
			<linearGradient id="SVGID_00000107573822870304510980000011740060984788070574_" gradientUnits="userSpaceOnUse" x1="724.261" y1="910.3496" x2="85.8088" y2="867.9526">
			<stop  offset="0" style="stop-color:#470385"/>
			<stop  offset="1" style="stop-color:#444CB6"/>
		</linearGradient>
		
			<rect x="363.15" y="780.45" style="clip-path:url(#SVGID_00000034776294099249804180000017108132910619090310_);fill:url(#SVGID_00000107573822870304510980000011740060984788070574_);" width="379.96" height="237.07"/>
	</g>
	<defs>
		
			<filter id="Adobe_OpacityMaskFilter_00000025402662449541099380000006350377706825793972_" filterUnits="userSpaceOnUse" x="443.54" y="780.45" width="299.57" height="123.48">
			<feColorMatrix  type="matrix" values="1 0 0 0 0  0 1 0 0 0  0 0 1 0 0  0 0 0 1 0"/>
		</filter>
	</defs>
	
		<mask maskUnits="userSpaceOnUse" x="443.54" y="780.45" width="299.57" height="123.48" id="SVGID_00000175314463050715545860000012561919876100997806_">
		<g style="filter:url(#Adobe_OpacityMaskFilter_00000025402662449541099380000006350377706825793972_);">
			
				<linearGradient id="SVGID_00000131369420116797571880000016980139337653540001_" gradientUnits="userSpaceOnUse" x1="736.652" y1="1558.1111" x2="-146.2855" y2="1286.3677" gradientTransform="matrix(1 0 0 1 515.213 -513.2373)">
				<stop  offset="0" style="stop-color:#FFFFFF"/>
				<stop  offset="1" style="stop-color:#000000"/>
			</linearGradient>
			
				<rect x="443.54" y="780.45" style="fill:url(#SVGID_00000131369420116797571880000016980139337653540001_);" width="299.57" height="123.48"/>
		</g>
	</mask>
	
		<path style="mask:url(#SVGID_00000175314463050715545860000012561919876100997806_);fill-rule:evenodd;clip-rule:evenodd;fill:#1E003D;" d="
		M600.38,802.93c-52.26,0-82.34,2.18-102.46,0.06l-54.38,86.56l180.14,14.39c82.57-62.01,119.43-123.48,119.43-123.48
		c-11.9,15.5-22.4,21.08-42.96,22.8C680.06,804.93,650.37,802.93,600.38,802.93"/>
	<defs>
		
			<filter id="Adobe_OpacityMaskFilter_00000057858712882168026560000004521908341682885253_" filterUnits="userSpaceOnUse" x="363.15" y="780.45" width="379.96" height="237.07">
			<feColorMatrix  type="matrix" values="1 0 0 0 0  0 1 0 0 0  0 0 1 0 0  0 0 0 1 0"/>
		</filter>
	</defs>
	
		<mask maskUnits="userSpaceOnUse" x="363.15" y="780.45" width="379.96" height="237.07" id="SVGID_00000136369873580729725580000004196163419926571142_">
		<g style="filter:url(#Adobe_OpacityMaskFilter_00000057858712882168026560000004521908341682885253_);">
			
				<linearGradient id="SVGID_00000086670642760695245290000009960335361144098703_" gradientUnits="userSpaceOnUse" x1="-335.7972" y1="2080.968" x2="290.1004" y2="977.3418" gradientTransform="matrix(1 0 0 1 471.924 -446.6869)">
				<stop  offset="0" style="stop-color:#FFFFFF"/>
				<stop  offset="1" style="stop-color:#000000"/>
			</linearGradient>
			
				<rect x="363.15" y="780.45" style="fill:url(#SVGID_00000086670642760695245290000009960335361144098703_);" width="379.96" height="237.07"/>
		</g>
	</mask>
	
		<path style="mask:url(#SVGID_00000136369873580729725580000004196163419926571142_);fill-rule:evenodd;clip-rule:evenodd;fill:#1E003D;" d="
		M363.15,1017.52c268.79-51.61,379.96-237.07,379.96-237.07c-11.9,15.5-22.4,21.08-42.96,22.8c-9.69,0.81-21.62,0.77-36.98,0.5
		C569.26,961.06,363.15,1017.52,363.15,1017.52"/>
	<g>
		<defs>
			<path id="SVGID_00000179604565742534405650000014358487431544765627_" d="M363.15,1017.52c41.25,10.99,104.95,4.24,237.23,4.24
				c129.68,0,193.45,6.48,234.78-3.62c17.15-4.19,30.44-11.24,42.96-22.8c30.18-27.84,55.95-81.83,120.8-185.05
				c66.14-105.28,104.34-152.6,114.61-190.93H843.99c-8.06,17.07-25.16,39.92-51.29,81.51c-24.99,39.79-37.96,64.42-49.59,79.57
				C743.11,780.45,631.94,965.91,363.15,1017.52"/>
		</defs>
		<clipPath id="SVGID_00000116214332474608051040000000879348029863295888_">
			<use xlink:href="#SVGID_00000179604565742534405650000014358487431544765627_"  style="overflow:visible;"/>
		</clipPath>
		
			<linearGradient id="SVGID_00000109029240860897901500000013237722783609271427_" gradientUnits="userSpaceOnUse" x1="888.4127" y1="564.0136" x2="572.0594" y2="1111.9337">
			<stop  offset="0" style="stop-color:#5B0298"/>
			<stop  offset="1" style="stop-color:#9200F7"/>
		</linearGradient>
		
			<rect x="363.15" y="619.37" style="clip-path:url(#SVGID_00000116214332474608051040000000879348029863295888_);fill:url(#SVGID_00000109029240860897901500000013237722783609271427_);" width="750.37" height="409.14"/>
	</g>
	<defs>
		
			<filter id="Adobe_OpacityMaskFilter_00000088816457037839926840000010608075037913756340_" filterUnits="userSpaceOnUse" x="363.15" y="619.37" width="750.37" height="404.44">
			<feColorMatrix  type="matrix" values="1 0 0 0 0  0 1 0 0 0  0 0 1 0 0  0 0 0 1 0"/>
		</filter>
	</defs>
	
		<mask maskUnits="userSpaceOnUse" x="363.15" y="619.37" width="750.37" height="404.44" id="SVGID_00000055676178554116908160000003995234476061099429_">
		<g style="filter:url(#Adobe_OpacityMaskFilter_00000088816457037839926840000010608075037913756340_);">
			
				<linearGradient id="SVGID_00000106857711814921119240000005442120392541719441_" gradientUnits="userSpaceOnUse" x1="477.0109" y1="1562.4911" x2="276.3149" y2="1278.5938" gradientTransform="matrix(1 0 0 1 471.924 -443.0007)">
				<stop  offset="0" style="stop-color:#FFFFFF"/>
				<stop  offset="1" style="stop-color:#000000"/>
			</linearGradient>
			
				<rect x="363.15" y="619.37" style="fill:url(#SVGID_00000106857711814921119240000005442120392541719441_);" width="750.37" height="404.44"/>
		</g>
	</mask>
	
		<path style="mask:url(#SVGID_00000055676178554116908160000003995234476061099429_);fill-rule:evenodd;clip-rule:evenodd;fill:#F12BF2;" d="
		M890.76,753.83C780.04,930.07,826.11,908.77,618.9,907.5c-60.52,44.51-144.68,88.69-255.75,110.02
		c41.25,10.99,104.95,4.24,237.22,4.24c129.68,0,193.45,6.48,234.78-3.62c17.15-4.19,30.44-11.24,42.96-22.8
		c30.18-27.84,55.95-81.83,120.8-185.05c66.14-105.28,104.34-152.6,114.61-190.93l-140.78,0
		C963.72,646.52,936.4,681.19,890.76,753.83"/>
	<defs>
		
			<filter id="Adobe_OpacityMaskFilter_00000085935650826788453250000008662011274856180377_" filterUnits="userSpaceOnUse" x="363.15" y="619.37" width="750.37" height="404.44">
			<feColorMatrix  type="matrix" values="1 0 0 0 0  0 1 0 0 0  0 0 1 0 0  0 0 0 1 0"/>
		</filter>
	</defs>
	
		<mask maskUnits="userSpaceOnUse" x="363.15" y="619.37" width="750.37" height="404.44" id="SVGID_00000080200422640837017950000015470268015352539276_">
		<g style="filter:url(#Adobe_OpacityMaskFilter_00000085935650826788453250000008662011274856180377_);">
			
				<linearGradient id="SVGID_00000171678148928478288730000000077931121154334602_" gradientUnits="userSpaceOnUse" x1="-39.7072" y1="1537.5928" x2="429.5263" y2="1119.1285" gradientTransform="matrix(1 0 0 1 471.924 -443.0007)">
				<stop  offset="0" style="stop-color:#000000"/>
				<stop  offset="0.36" style="stop-color:#919191"/>
				<stop  offset="1" style="stop-color:#000000"/>
			</linearGradient>
			
				<rect x="363.15" y="619.37" style="fill:url(#SVGID_00000171678148928478288730000000077931121154334602_);" width="750.37" height="404.44"/>
		</g>
	</mask>
	
		<path style="mask:url(#SVGID_00000080200422640837017950000015470268015352539276_);fill-rule:evenodd;clip-rule:evenodd;fill:#F6DCFD;" d="
		M375.7,1017.62c7.77,1.35,15.7,2.13,23.52,2.65c16.04,1.06,32.31,1.07,48.39,0.94c21.88-0.18,43.77-0.72,65.65-1.12
		c29.04-0.53,58.08-0.88,87.12-0.88c28.55,0,57.09,0.34,85.64,0.86c21.63,0.39,43.28,0.92,64.91,1.12
		c16.01,0.15,32.19,0.17,48.17-0.76c11.81-0.69,23.88-1.94,35.34-4.75c16.63-4.06,29.56-10.93,41.71-22.13
		c8.37-7.72,15.58-16.7,22.14-25.76c8.88-12.25,16.94-25.14,24.8-37.95c10.62-17.32,20.95-34.81,31.4-52.23
		c13.79-22.98,27.74-45.86,42.01-68.59c14.52-23.12,29.37-46.05,44.39-68.9c11.32-17.21,22.76-34.37,33.88-51.69
		c8.16-12.73,16.29-25.69,23.31-38.98c4.66-8.81,8.95-18.04,11.83-27.52l-264.11,0c-2.14,4.35-4.59,8.6-7.12,12.77
		c-3.58,5.92-7.37,11.74-11.18,17.55c-10.88,16.61-21.84,33.12-32.4,49.92c-10.19,16.21-19.94,32.59-29.78,48.98
		c-3.5,5.82-7.01,11.65-10.68,17.38c-2.89,4.51-5.89,9-9.17,13.29c-1.73,2.88-3.66,5.73-5.57,8.51c-5.18,7.54-10.74,14.9-16.5,22.07
		c-20.1,25.04-43.19,48.44-67.91,69.67c-35.73,30.68-75.58,57.3-118.35,79.08C486.43,986.99,432.14,1005.75,375.7,1017.62
		 M363.15,1017.52c41.25,10.99,104.95,4.24,237.23,4.24c129.68,0,193.45,6.48,234.78-3.62c17.15-4.19,30.44-11.24,42.96-22.8
		c30.18-27.84,55.95-81.83,120.8-185.05c66.14-105.28,104.34-152.6,114.61-190.93H843.99c-8.06,17.07-25.16,39.92-51.29,81.51
		c-24.99,39.79-37.96,64.42-49.59,79.57C743.11,780.45,631.94,965.91,363.15,1017.52z"/>
</g>
</svg>
